# xmcd
#
# Track frame offsets:
#	150
#	13190
#	30048
#	42869
#	53134
#	67794
#	82855
#	98741
#	111256
#	124667
#	136436
#	152072
#	163940
#	181440
#	194641
#	210017
#
# Disc length: 3241 seconds
#
# Revision: 2
# Processed by: cddbd v1.5.2PL0 Copyright (c) Steve Scherf et al.
# Submitted via: EasyCDDAExtractor 16.0.1.1
#
DISCID=c80ca710
DTITLE=Barry White - Barry White and Friends
DYEAR=2006
DGENRE=Blues
TTITLE0=Barry White - Fragile, Handle With Care
TTITLE1=Ike and Tina Turner - Stand By Me
TTITLE2=Isaac Hayes - A Few More Kisses To Go
TTITLE3=Barry White - I Owe It All To You
TTITLE4=Bobby Womack - How I Miss You Baby
TTITLE5=Eddie Holman - Hey There, Lonely Girl
TTITLE6=The Smooth Operators  - Let The Music Play
TTITLE7=Barry White - All In The Run Of One Day
TTITLE8=The Drifters - In Broadway
TTITLE9=Wilson Pickett - Down To My Last Heartbreack
TTITLE10=Al Wilson - Show And Tell
TTITLE11=Barry White - Where Can I Turn On
TTITLE12=The Smooth Operators  - I'm Gonna Love You Just A Little Bit More Bab
TTITLE12=e
TTITLE13=Percy Sledge - I've Been Loving You Too Long
TTITLE14=Barry White - Come On In Love
TTITLE15=Curtis Mayfield - Move On Up
EXTD=
EXTT0=
EXTT1=
EXTT2=
EXTT3=
EXTT4=
EXTT5=
EXTT6=
EXTT7=
EXTT8=
EXTT9=
EXTT10=
EXTT11=
EXTT12=
EXTT13=
EXTT14=
EXTT15=
PLAYORDER=
